HIERARCHY
ROOT RootJoint
{
    OFFSET   0.000000   0.000000   0.000000
    CHANNELS 6 Xposition Yposition Zposition Xrotation Yrotation Zrotation
    JOINT pelvis_lowerback
    {
        OFFSET   0.000000   0.093605   0.000000
        CHANNELS 3 Xrotation Yrotation Zrotation
        JOINT lowerback_torso
        {
            OFFSET   0.000000   0.100000   0.000000
            CHANNELS 3 Xrotation Yrotation Zrotation
            JOINT torso_head
            {
                OFFSET   0.000000   0.282350   0.000000
                CHANNELS 3 Xrotation Yrotation Zrotation
                End Site
                {
                    OFFSET   0.000000   0.192650   0.000000
                }
            }
            JOINT rTorso_Clavicle
            {
                OFFSET  -0.001000   0.157500   0.000000
                CHANNELS 3 Xrotation Yrotation Zrotation
                JOINT rShoulder
                {
                    OFFSET  -0.117647   0.000000   0.000000
                    CHANNELS 3 Xrotation Yrotation Zrotation
                    JOINT rElbow
                    {
                        OFFSET  -0.245000   0.000000   0.000000
                        CHANNELS 3 Xrotation Yrotation Zrotation
                        JOINT rWrist
                        {
                            OFFSET  -0.240000   0.000000   0.000000
                            CHANNELS 3 Xrotation Yrotation Zrotation
                            End Site
                            {
                                OFFSET  -0.116353  -0.002500   0.000000
                            }
                        }
                    }
                }
            }
            JOINT lTorso_Clavicle
            {
                OFFSET   0.001000   0.157500   0.000000
                CHANNELS 3 Xrotation Yrotation Zrotation
                JOINT lShoulder
                {
                    OFFSET   0.117647   0.000000   0.000000
                    CHANNELS 3 Xrotation Yrotation Zrotation
                    JOINT lElbow
                    {
                        OFFSET   0.245000   0.000000   0.000000
                        CHANNELS 3 Xrotation Yrotation Zrotation
                        JOINT lWrist
                        {
                            OFFSET   0.240000   0.000000   0.000000
                            CHANNELS 3 Xrotation Yrotation Zrotation
                            End Site
                            {
                                OFFSET   0.116353  -0.002500   0.000000
                            }
                        }
                    }
                }
            }
        }
    }
    JOINT rHip
    {
        OFFSET  -0.100000  -0.051395   0.000000
        CHANNELS 3 Xrotation Yrotation Zrotation
        JOINT rKnee
        {
            OFFSET   0.000000  -0.410000   0.000000
            CHANNELS 3 Xrotation Yrotation Zrotation
            JOINT rAnkle
            {
                OFFSET   0.000000  -0.390000   0.000000
                CHANNELS 3 Xrotation Yrotation Zrotation
                JOINT rToeJoint
                {
                    OFFSET   0.000000  -0.050000   0.130000
                    CHANNELS 3 Xrotation Yrotation Zrotation
                    End Site
                    {
                        OFFSET  -0.010000   0.002000   0.060000
                    }
                }
            }
        }
    }
    JOINT lHip
    {
        OFFSET   0.100000  -0.051395   0.000000
        CHANNELS 3 Xrotation Yrotation Zrotation
        JOINT lKnee
        {
            OFFSET   0.000000  -0.410000   0.000000
            CHANNELS 3 Xrotation Yrotation Zrotation
            JOINT lAnkle
            {
                OFFSET   0.000000  -0.390000   0.000000
                CHANNELS 3 Xrotation Yrotation Zrotation
                JOINT lToeJoint
                {
                    OFFSET   0.000000  -0.050000   0.130000
                    CHANNELS 3 Xrotation Yrotation Zrotation
                    End Site
                    {
                        OFFSET   0.010000   0.002000   0.060000
                    }
                }
            }
        }
    }
}
MOTION
Frames: 15
Frame Time:   0.008333
 -2.463371   0.356010   4.369211  95.294808  -1.074458  11.338618 -10.863684   5.669053  -0.397383  -8.500472   5.474804   1.531617  18.892009  -4.438870  -3.619527  -0.653130  21.802598 -33.925868 -24.436340  38.699492  10.981465   0.000236  21.312143  -0.004203  -2.880198  -3.725023 -48.113796   7.830015 -19.973705  36.454515  -2.010370 -19.969805 -31.070062   0.014635 -15.604043   0.001875 -11.410217  13.209513 -13.009032 -55.779635   5.056306  -3.064304  67.772517   0.000690   0.000286   0.604304   6.470478  10.898664   4.336353   0.000532  -0.002853  -9.147549   0.547205  -5.109045  18.211140   0.004520  -0.004247   5.152661  -0.808121  -8.373757  -4.328624   0.002722  -0.001482
 -2.462870   0.356607   4.369702  95.424479  -1.098968  11.322356 -11.066200   5.863788  -0.035172  -8.572127   5.548809   1.473955  18.947830  -4.555359  -3.482397  -0.659585  21.974778 -33.978423 -24.517787  38.803606  11.274584   0.000340  20.972534  -0.004811  -2.406926  -3.653333 -48.053645   7.556981 -19.879451  36.099474  -1.932130 -20.254895 -32.027289   0.015489 -16.090298   0.001139 -11.480820  12.668632 -10.868006 -55.942556   5.089113  -3.019255  67.716720   0.000541   0.000231   0.571555   6.348578  10.827244   5.333708   0.001229  -0.003228  -9.226503   0.544673  -5.333772  18.981929   0.005068  -0.004271   5.265463  -0.924501  -8.453482  -4.192425   0.002550  -0.001301
 -2.462435   0.357294   4.370140  95.513812  -1.132439  11.314519 -11.224698   6.056078   0.319974  -8.619252   5.619010   1.399363  19.000779  -4.661442  -3.347608  -0.646953  22.173643 -34.042751 -24.593271  38.880872  11.537529   0.000395  20.610282  -0.005305  -1.957904  -3.568616 -48.003691   7.292842 -19.860102  35.688983  -1.952733 -20.624144 -33.025957   0.017549 -16.711911   0.000249 -11.047504  13.525627  -9.655908 -56.108815   5.126564  -2.977389  67.712867   0.000433   0.000185   0.557748   6.239197  10.761560   6.472586   0.001748  -0.003651  -9.337647   0.548126  -5.549314  19.711830   0.005308  -0.004252   5.371702  -1.033686  -8.528119  -4.066677   0.002356  -0.001159
 -2.462129   0.358027   4.370535  95.576422  -1.213726  11.323115 -11.333669   6.212161   0.631885  -8.614960   5.659074   1.290084  19.037169  -4.755208  -3.207170  -0.641618  22.383760 -34.115077 -24.674151  38.962295  11.771302   0.000302  20.270066  -0.005203  -1.633393  -3.477833 -47.995030   7.110930 -19.919910  35.218893  -2.014995 -21.049007 -34.061584   0.020325 -17.342599  -0.000133 -10.513814  13.217075  -9.880712 -56.268755   5.163478  -2.919342  67.730301   0.000344   0.000143   0.555562   6.137597  10.700130   7.675995   0.001768  -0.004217  -9.467628   0.558088  -5.753963  20.382851   0.005193  -0.004381   5.470254  -1.135557  -8.597933  -3.952652   0.002131  -0.001080
 -2.461838   0.358686   4.370845  95.619333  -1.267947  11.317414 -11.425024   6.407359   0.930964  -8.622375   5.762664   1.225976  19.082573  -4.852931  -3.093938  -0.666199  22.515625 -34.166853 -24.734265  39.015330  11.985117   0.000332  19.957794  -0.005246  -1.245134  -3.407247 -47.951636   6.913854 -19.790381  34.882870  -1.932769 -21.212926 -34.860927   0.018065 -17.582390  -0.000249 -11.885905  12.420236  -6.223078 -56.413077   5.182869  -2.873403  67.766080   0.000273   0.000107   0.552633   6.049899  10.644952   8.799477   0.001753  -0.004407  -9.628883   0.565531  -5.934263  21.000341   0.004987  -0.004262   5.561438  -1.230781  -8.662820  -3.851934   0.001912  -0.000984
 -2.461556   0.359282   4.371151  95.631194  -1.306809  11.299968 -11.502145   6.594491   1.207422  -8.617182   5.858725   1.165308  19.127812  -4.939333  -2.974964  -0.688314  22.633561 -34.199449 -24.785307  39.044430  12.183658   0.000337  19.649456  -0.005227  -0.869495  -3.321329 -47.914631   6.720605 -19.690918  34.525588  -1.903130 -21.426560 -35.658902   0.017471 -17.978939  -0.000540 -12.271727  11.944595  -4.689531 -56.523965   5.196834  -2.831969  67.808981   0.000221   0.000081   0.552763   5.970038  10.593862   9.890815   0.001796  -0.004383  -9.802600   0.574864  -6.094628  21.565934   0.004726  -0.003996   5.646222  -1.319494  -8.723221  -3.759238   0.001711  -0.000888
 -2.461294   0.359810   4.371438  95.620140  -1.344663  11.280487 -11.563504   6.768687   1.462282  -8.598634   5.947420   1.101937  19.167938  -5.018691  -2.864629  -0.708207  22.740095 -34.227219 -24.829377  39.062458  12.367934   0.000313  19.352461  -0.005074  -0.529402  -3.228479 -47.887886   6.551938 -19.603248  34.175423  -1.884797 -21.633185 -36.426531   0.016720 -18.343228  -0.000753 -12.773123  11.500446  -3.145579 -56.612053   5.210517  -2.791653  67.862425   0.000181   0.000062   0.556048   5.895554  10.545983  10.947600   0.001797  -0.004284  -9.988703   0.587725  -6.243174  22.084120   0.004417  -0.003701   5.724787  -1.402184  -8.779572  -3.675752   0.001522  -0.000802
 -2.460886   0.360577   4.371504  95.678390  -1.210006  11.208994 -11.577259   6.903380   1.815530  -8.783581   6.006324   0.935955  19.333673  -5.112447  -2.708758  -0.703266  22.853541 -34.283290 -24.907640  39.032121  12.618157   0.000423  18.970265  -0.005454  -0.125197  -3.078956 -47.827686   6.311177 -19.557957  33.739551  -1.846508 -21.936765 -37.166839   0.015828 -18.683246  -0.001109 -13.317680  11.050861  -1.539031 -56.963827   5.221914  -2.808529  68.189035   0.000454   0.000234   0.704939   5.987024  10.596460  10.758080   0.001355  -0.003596 -10.384566   0.510741  -6.339045  22.322335   0.003820  -0.003058   5.851960  -1.393791  -8.711949  -3.638964   0.001242  -0.000653
 -2.460459   0.361341   4.371418  95.678802  -0.991966  11.102250 -11.546698   7.014093   2.175669  -8.946318   6.040226   0.780588  19.486333  -5.199249  -2.559950  -0.713331  22.957232 -34.342462 -24.973016  38.970138  12.824681   0.000597  18.576899  -0.005880   0.296430  -2.914741 -47.745546   6.103734 -19.543667  33.304001  -1.832543 -22.257643 -37.891891   0.015223 -19.029945  -0.001255 -13.364791  10.558680   0.132110 -57.310472   5.244339  -2.839395  68.599798   0.000990   0.000673   0.887409   6.078178  10.645548  10.606464   0.000927  -0.003069 -10.833913   0.442142  -6.385166  22.463706   0.003233  -0.002380   5.966660  -1.384077  -8.648003  -3.612415   0.001013  -0.000515
 -2.460033   0.361987   4.371213  95.625479  -0.736669  10.982132 -11.486415   7.109169   2.521823  -9.075218   6.058123   0.637358  19.628968  -5.278555  -2.418008  -0.735381  23.050222 -34.401880 -25.028374  38.890426  12.997081   0.000780  18.188210  -0.006191   0.711232  -2.744498 -47.650684   5.918685 -19.549093  32.877829  -1.838837 -22.574379 -38.590689   0.014626 -19.366204  -0.001308 -13.394780  10.102958   1.753072 -57.607580   5.277714  -2.879006  69.036409   0.001594   0.001198   1.086229   6.159466  10.689969  10.485172   0.000574  -0.002623 -11.316528   0.385690  -6.405985  22.555461   0.002699  -0.001816   6.071781  -1.374201  -8.588153  -3.592005   0.000825  -0.000400
 -2.459613   0.362440   4.370901  95.532055  -0.477645  10.861236 -11.408158   7.195961   2.847631  -9.177086   6.069296   0.503480  19.763347  -5.351336  -2.283496  -0.763681  23.133986 -34.460850 -25.075355  38.802290  13.144337   0.000949  17.811783  -0.006327   1.103649  -2.572478 -47.547220   5.750659 -19.562572  32.468463  -1.857193 -22.877064 -39.255961   0.013925 -19.684995  -0.001332 -13.436107   9.674636   3.344499 -57.849317   5.317196  -2.921650  69.477074   0.002126   0.001662   1.289948   6.231935  10.730028  10.388138   0.000316  -0.002228 -11.822888   0.340506  -6.415154  22.613180   0.002226  -0.001388   6.168670  -1.364435  -8.532255  -3.575840   0.000672  -0.000311
 -2.459195   0.362651   4.370487  95.409193  -0.236802  10.746282 -11.320274   7.279633   3.151116  -9.259251   6.080435   0.377815  19.889971  -5.418427  -2.156810  -0.793905  23.210201 -34.518918 -25.115218  38.711644  13.272925   0.001098  17.451644  -0.006288   1.465618  -2.400985 -47.436259   5.594996 -19.576217  32.081234  -1.881840 -23.159159 -39.881928   0.013075 -19.982041  -0.001362 -13.500959   9.256890   4.954244 -58.037732   5.357722  -2.962954  69.913067   0.002520   0.001989   1.493348   6.297843  10.766512  10.310511   0.000144  -0.001875 -12.345311   0.304997  -6.419564  22.644921   0.001814  -0.001076   6.258164  -1.354946  -8.480103  -3.563027   0.000545  -0.000243
 -2.458773   0.362581   4.369973  95.264520  -0.027308  10.640787 -11.228979   7.363519   3.432234  -9.327833   6.095773   0.260245  20.009156  -5.480480  -2.038051  -0.823022  23.280304 -34.575737 -25.148997  38.622331  13.387575   0.001228  17.109920  -0.006099   1.793946  -2.231280 -47.317268   5.447644 -19.585241  31.720051  -1.909062 -23.416708 -40.464295   0.012074 -20.255177  -0.001412 -13.596908   8.834732   6.623515 -58.176365   5.395583  -3.000439  70.340888   0.002758   0.002159   1.694201   6.359128  10.800125  10.248409   0.000038  -0.001561 -12.877368   0.277574  -6.422666  22.656181   0.001461  -0.000852   6.340935  -1.345825  -8.431469  -3.552942   0.000441  -0.000192
 -2.458475   0.362212   4.369247  95.203114   0.078480  10.504071 -11.182474   7.589924   3.735950  -9.478269   5.966672   0.133419  20.295827  -5.501380  -1.820323  -0.716975  23.354728 -34.760357 -25.162018  38.523146  13.467334   0.001229  16.812731  -0.005261   1.916654  -2.074144 -47.220460   5.245622 -19.504895  31.256316  -1.857703 -23.586146 -40.985353   0.011704 -20.622924  -0.002016 -13.537078   8.598298   7.580617 -58.682677   5.510819  -2.873104  71.210082   0.003872   0.003074   1.937191   6.521809  10.795279  10.148921  -0.000138  -0.001418 -13.440756   0.235719  -6.322490  22.370852   0.001118  -0.000745   6.318502  -1.328319  -8.327679  -3.665090   0.000446  -0.000057
 -2.458134   0.362300   4.368530  95.351504  -0.075099  10.388368 -11.185775   7.913854   4.049559  -9.679441   5.930592   0.028748  20.570277  -5.518830  -1.603446  -0.632847  23.445537 -34.956723 -25.185413  38.455938  13.521936   0.001172  16.552139  -0.004371   1.967213  -1.927690 -47.136850   5.052776 -19.365286  30.804960  -1.784374 -23.704176 -41.474632   0.011181 -20.943207  -0.002276 -13.642296   8.275340   8.877639 -58.978133   5.567852  -2.661660  71.963432   0.003521   0.002424   2.101622   6.701993  10.801820   9.551038   0.000054  -0.001341 -14.217751   0.223576  -6.173568  21.993039   0.001155   0.000116   6.292489  -1.309246  -8.229976  -3.781209   0.000561   0.000306
